<svg xmlns="http://www.w3.org/2000/svg" viewBox="0 0 841.89 595.28"><defs><style>.cls-1{fill:#1d1d1b;}.cls-2{fill:#fff;}</style></defs><g id="Capa_6" data-name="Capa 6"><rect class="cls-1" width="841.89" height="595.28"/><path class="cls-2" d="M368.61,303.43h-6.48L350.45,283.5v19.93h-6.06V273.15h6.48l11.68,20v-20h6.06Z"/><path class="cls-2" d="M382.27,297.9a3.26,3.26,0,0,0,.68.13,5,5,0,0,0,.67,0,5.5,5.5,0,0,0,1.63-.24,5.71,5.71,0,0,0,1.47-.66,5.57,5.57,0,0,0,1.22-1.06,5.5,5.5,0,0,0,.88-1.38L393,299a11.29,11.29,0,0,1-1.85,2,11.43,11.43,0,0,1-2.26,1.54,10.62,10.62,0,0,1-2.55,1,11.52,11.52,0,0,1-2.76.33,11.47,11.47,0,0,1-8.16-3.36,11.62,11.62,0,0,1-2.48-3.76,12.53,12.53,0,0,1-.91-4.81A12.92,12.92,0,0,1,373,287a11.5,11.5,0,0,1,2.48-3.78,11.06,11.06,0,0,1,3.68-2.42,11.58,11.58,0,0,1,4.48-.87,11.12,11.12,0,0,1,2.77.34,11.61,11.61,0,0,1,4.83,2.52,11,11,0,0,1,1.86,2.06Zm3-11.89a3.36,3.36,0,0,0-.79-.19,7.38,7.38,0,0,0-.82,0,5.75,5.75,0,0,0-2.23.43,5.27,5.27,0,0,0-1.81,1.24,5.84,5.84,0,0,0-1.22,1.93,7,7,0,0,0-.44,2.54q0,.31,0,.72a7.5,7.5,0,0,0,.11.81c.05.28.11.54.18.79a3,3,0,0,0,.27.68Z"/><path class="cls-2" d="M402.1,303.43l-8.62-22.61h6.57l4.94,14.1,4.92-14.1h6.59l-8.62,22.61Z"/><path class="cls-2" d="M427,297.9a3.26,3.26,0,0,0,.68.13,5,5,0,0,0,.67,0,5.5,5.5,0,0,0,1.63-.24,5.71,5.71,0,0,0,1.47-.66,5.35,5.35,0,0,0,1.22-1.06,5.5,5.5,0,0,0,.88-1.38L437.8,299a10.93,10.93,0,0,1-1.85,2,11.14,11.14,0,0,1-2.26,1.54,10.46,10.46,0,0,1-2.55,1,11.46,11.46,0,0,1-2.76.33,11.47,11.47,0,0,1-8.16-3.36,11.78,11.78,0,0,1-2.48-3.76,12.53,12.53,0,0,1-.91-4.81,12.92,12.92,0,0,1,.91-4.9,11.66,11.66,0,0,1,2.48-3.78,11.16,11.16,0,0,1,3.68-2.42,11.58,11.58,0,0,1,4.48-.87,11.12,11.12,0,0,1,2.77.34,11.53,11.53,0,0,1,2.57,1,11.85,11.85,0,0,1,2.27,1.55,11.31,11.31,0,0,1,1.85,2.06ZM430,286a3.36,3.36,0,0,0-.79-.19,7.15,7.15,0,0,0-.82,0,5.7,5.7,0,0,0-2.22.43,5.21,5.21,0,0,0-1.82,1.24,5.66,5.66,0,0,0-1.21,1.93,6.8,6.8,0,0,0-.45,2.54,6.49,6.49,0,0,0,0,.72,7.46,7.46,0,0,0,.1.81c.05.28.11.54.18.79a3,3,0,0,0,.27.68Z"/><path class="cls-2" d="M446.5,303.43h-5.76V280.82H444v2.68a10,10,0,0,1,3.17-2,10.21,10.21,0,0,1,3.67-.68H456v5.74h-5.09a4.31,4.31,0,0,0-1.71.34,4.3,4.3,0,0,0-2.32,2.32,4.31,4.31,0,0,0-.34,1.71Z"/><path class="cls-2" d="M483.47,294.35a8.74,8.74,0,0,1-.72,3.53,9.52,9.52,0,0,1-1.95,2.88,9.28,9.28,0,0,1-2.88,1.95,8.71,8.71,0,0,1-3.53.72H459.25V273.15h15.14a8.71,8.71,0,0,1,3.53.72,9.28,9.28,0,0,1,2.88,1.95,9.52,9.52,0,0,1,1.95,2.88,8.74,8.74,0,0,1,.72,3.53,7,7,0,0,1-.23,1.73,8.28,8.28,0,0,1-.66,1.71,7,7,0,0,1-1,1.5,5.77,5.77,0,0,1-1.31,1.12,4.72,4.72,0,0,1,1.33,1.09,7.85,7.85,0,0,1,1,1.51,8.09,8.09,0,0,1,.64,1.72A7.15,7.15,0,0,1,483.47,294.35Zm-18.16-9.08h9.08a3,3,0,0,0,2.15-.88,3,3,0,0,0,.64-1,3.15,3.15,0,0,0,.23-1.19,3,3,0,0,0-3-3h-9.08Zm0,12.1h9.08a3,3,0,1,0,0-6h-9.08Z"/><path class="cls-2" d="M493.25,303.43h-5.81V271.82h5.81Z"/><path class="cls-2" d="M519.49,291.92a12.1,12.1,0,0,1-.91,4.72,11.53,11.53,0,0,1-6.13,6.29,11.44,11.44,0,0,1-9,0,11.53,11.53,0,0,1-6.16-6.29,12.29,12.29,0,0,1-.91-4.72,12.43,12.43,0,0,1,.91-4.77,11.75,11.75,0,0,1,2.48-3.79,11.54,11.54,0,0,1,3.68-2.5,11.08,11.08,0,0,1,4.48-.91,11.83,11.83,0,0,1,4.51.86,10.83,10.83,0,0,1,3.66,2.42,11.32,11.32,0,0,1,2.47,3.78A12.71,12.71,0,0,1,519.49,291.92Zm-5.8,0a6.73,6.73,0,0,0-.46-2.52,6,6,0,0,0-1.23-1.94,5.24,5.24,0,0,0-1.83-1.25,5.75,5.75,0,0,0-2.23-.43,5.67,5.67,0,0,0-2.22.43,5.11,5.11,0,0,0-1.82,1.25,5.9,5.9,0,0,0-1.21,1.94,6.73,6.73,0,0,0-.45,2.52,6.48,6.48,0,0,0,.45,2.43,6,6,0,0,0,1.21,1.94,5.66,5.66,0,0,0,1.82,1.3,5.21,5.21,0,0,0,2.22.48,5.59,5.59,0,0,0,2.23-.45,5.49,5.49,0,0,0,1.83-1.24,5.89,5.89,0,0,0,1.23-1.95A6.76,6.76,0,0,0,513.69,291.92Z"/><path class="cls-2" d="M544.53,291.92a12.28,12.28,0,0,1-.9,4.72,11.85,11.85,0,0,1-2.47,3.78,11.69,11.69,0,0,1-3.67,2.51,11.44,11.44,0,0,1-9,0,11.53,11.53,0,0,1-6.16-6.29,12.29,12.29,0,0,1-.91-4.72,12.43,12.43,0,0,1,.91-4.77,11.75,11.75,0,0,1,2.48-3.79,11.54,11.54,0,0,1,3.68-2.5A11.08,11.08,0,0,1,533,280a11.83,11.83,0,0,1,4.51.86,11,11,0,0,1,3.67,2.42,11.63,11.63,0,0,1,2.47,3.78A12.89,12.89,0,0,1,544.53,291.92Zm-5.8,0a6.54,6.54,0,0,0-.46-2.52,6,6,0,0,0-1.23-1.94,5.24,5.24,0,0,0-1.83-1.25,6,6,0,0,0-4.45,0,5.11,5.11,0,0,0-1.82,1.25,5.9,5.9,0,0,0-1.21,1.94,6.73,6.73,0,0,0-.45,2.52,6.48,6.48,0,0,0,.45,2.43,6,6,0,0,0,1.21,1.94,5.66,5.66,0,0,0,1.82,1.3,5.24,5.24,0,0,0,2.22.48,5.55,5.55,0,0,0,2.23-.45,5.49,5.49,0,0,0,1.83-1.24,5.89,5.89,0,0,0,1.23-1.95A6.56,6.56,0,0,0,538.73,291.92Z"/><path class="cls-2" d="M576.48,303.43h-5.74V289.07a2.84,2.84,0,0,0-.23-1.12,2.76,2.76,0,0,0-.62-.93,3.09,3.09,0,0,0-.93-.62,2.8,2.8,0,0,0-1.12-.22,2.7,2.7,0,0,0-1.1.22,2.84,2.84,0,0,0-1.52,1.55,2.84,2.84,0,0,0-.23,1.12v14.36h-5.76V289.07A2.83,2.83,0,0,0,559,288a2.94,2.94,0,0,0-1.55-1.55,2.87,2.87,0,0,0-1.12-.22,2.72,2.72,0,0,0-1.11.22,2.88,2.88,0,0,0-.91.62,3.06,3.06,0,0,0-.61.93,2.83,2.83,0,0,0-.22,1.12v14.36h-5.77V280.82h2.95v1.73a9.27,9.27,0,0,1,2.65-1.58,8.31,8.31,0,0,1,6.1,0,6.2,6.2,0,0,1,2.65,2,6,6,0,0,1,1.2-1.22,7,7,0,0,1,3-1.28,9.56,9.56,0,0,1,1.58-.14,8.46,8.46,0,0,1,3.37.68,8.57,8.57,0,0,1,4.59,4.6,8.58,8.58,0,0,1,.68,3.38Z"/><path class="cls-2" d="M336.34,252.63v70h-.19v.19a35.76,35.76,0,0,1-71.48,1.48Z"/><polygon class="cls-2" points="308.34 273.81 264.83 317.32 264.83 230.3 308.34 273.81"/><rect class="cls-2" x="294.43" y="227.24" width="34.58" height="35.79" transform="translate(-82.03 292.21) rotate(-45)"/><path class="cls-2" d="M459.81,325.55h-3V310.41h6.06a5.62,5.62,0,0,1,1.6.22,6,6,0,0,1,1.45.61,6.16,6.16,0,0,1,1.22.95,6,6,0,0,1,.95,1.23,6,6,0,0,1,.61,1.45,5.62,5.62,0,0,1,.22,1.6,5.85,5.85,0,0,1-.48,2.35,6,6,0,0,1-3.22,3.22,5.85,5.85,0,0,1-2.35.48h-3Zm0-12.11v6.06h3a2.88,2.88,0,0,0,1.17-.24,3,3,0,0,0,1.85-2.79,3,3,0,0,0-.24-1.18,3.07,3.07,0,0,0-1.61-1.61,2.88,2.88,0,0,0-1.17-.24Z"/><path class="cls-2" d="M473.24,325.55h-2.88V314.24H472v1.34a5.19,5.19,0,0,1,1.59-1,5,5,0,0,1,1.83-.35H478v2.88h-2.55a2.22,2.22,0,0,0-.85.16,2.27,2.27,0,0,0-.7.47,2.08,2.08,0,0,0-.46.7,2,2,0,0,0-.17.85Z"/><path class="cls-2" d="M490,319.8a6.16,6.16,0,0,1-.45,2.36,6.05,6.05,0,0,1-1.23,1.89,5.82,5.82,0,0,1-1.84,1.25,5.71,5.71,0,0,1-4.49,0,5.71,5.71,0,0,1-1.84-1.25,5.91,5.91,0,0,1-1.24-1.89,6.17,6.17,0,0,1-.46-2.36,6.24,6.24,0,0,1,.46-2.39,5.8,5.8,0,0,1,3.08-3.15,5.6,5.6,0,0,1,2.24-.45,5.82,5.82,0,0,1,2.25.43,5.55,5.55,0,0,1,1.84,1.21,5.83,5.83,0,0,1,1.23,1.89A6.49,6.49,0,0,1,490,319.8Zm-2.9,0a3.23,3.23,0,0,0-.23-1.27,3,3,0,0,0-.61-1,2.62,2.62,0,0,0-.92-.62,3,3,0,0,0-1.11-.22,2.93,2.93,0,0,0-1.11.22,2.5,2.5,0,0,0-.91.62,3,3,0,0,0-.61,1,3.42,3.42,0,0,0-.22,1.27,3.21,3.21,0,0,0,.22,1.21,3,3,0,0,0,.61,1,2.71,2.71,0,0,0,.91.65,2.61,2.61,0,0,0,1.11.24,3,3,0,0,0,1.11-.22,2.78,2.78,0,0,0,1.53-1.6A3.2,3.2,0,0,0,487.12,319.8Z"/><path class="cls-2" d="M502.54,325.55h-1.81V324q-.42.36-.87.69a7.18,7.18,0,0,1-1,.56,5.6,5.6,0,0,1-1,.37,3.9,3.9,0,0,1-1.08.14,5.6,5.6,0,0,1-2.24-.45,5.69,5.69,0,0,1-1.84-1.24,5.85,5.85,0,0,1-1.24-1.89,6.52,6.52,0,0,1,0-4.76,6,6,0,0,1,1.24-1.9,5.91,5.91,0,0,1,1.84-1.26,5.6,5.6,0,0,1,2.24-.45,5.46,5.46,0,0,1,.79.06,4.39,4.39,0,0,1,.79.21,3.06,3.06,0,0,1,.72.37,2.21,2.21,0,0,1,.57.57v-5.27h2.9Zm-2.9-5.75a2.85,2.85,0,0,0-.23-1.15,3.18,3.18,0,0,0-.61-1,3.13,3.13,0,0,0-.92-.69,2.48,2.48,0,0,0-1.11-.26,2.75,2.75,0,0,0-1.11.22,2.67,2.67,0,0,0-.91.6,2.91,2.91,0,0,0-.61,1,3.49,3.49,0,0,0-.22,1.29,3.13,3.13,0,0,0,.22,1.18,3.18,3.18,0,0,0,.61,1,3,3,0,0,0,.91.67,2.61,2.61,0,0,0,1.11.24,2.48,2.48,0,0,0,1.11-.26,3,3,0,0,0,.92-.69,3.18,3.18,0,0,0,.61-1A2.83,2.83,0,0,0,499.64,319.8Z"/><path class="cls-2" d="M513.05,324.23a7.58,7.58,0,0,1-.75.6,5.66,5.66,0,0,1-.82.48,4.86,4.86,0,0,1-.9.33,3.59,3.59,0,0,1-.93.12,5.1,5.1,0,0,1-2-.37,4.58,4.58,0,0,1-1.61-1.05,4.8,4.8,0,0,1-1.09-1.66,5.66,5.66,0,0,1-.4-2.19v-6.25h2.87v6.25a2.73,2.73,0,0,0,.18,1,2.17,2.17,0,0,0,.47.76,2,2,0,0,0,.69.46,2.18,2.18,0,0,0,.85.16,1.74,1.74,0,0,0,.84-.21,2.23,2.23,0,0,0,.69-.54,2.74,2.74,0,0,0,.47-.77,2.37,2.37,0,0,0,.16-.88v-6.25h2.89v11.31h-1.65Z"/><path class="cls-2" d="M526.77,316.49l-2.11,2.12a2.74,2.74,0,0,0-.43-.79,2.71,2.71,0,0,0-.62-.6,3,3,0,0,0-.74-.37,2.88,2.88,0,0,0-.83-.13,2.65,2.65,0,0,0-1.11.25,2.75,2.75,0,0,0-.91.68,3.22,3.22,0,0,0-.6,1,3.75,3.75,0,0,0-.23,1.33,2.79,2.79,0,0,0,.23,1.11,2.85,2.85,0,0,0,1.51,1.52,3,3,0,0,0,1.11.22,2.76,2.76,0,0,0,.82-.12,3.2,3.2,0,0,0,.73-.33,2.56,2.56,0,0,0,.61-.53,2.79,2.79,0,0,0,.44-.69l2.11,2.12a6,6,0,0,1-.92,1,6.1,6.1,0,0,1-1.13.77,5.81,5.81,0,0,1-1.28.48,5.73,5.73,0,0,1-1.38.16,5.64,5.64,0,0,1-2.24-.45,5.94,5.94,0,0,1-1.84-1.23,6.05,6.05,0,0,1-1.24-1.82,5.64,5.64,0,0,1-.45-2.24,6.37,6.37,0,0,1,1.69-4.4,5.87,5.87,0,0,1,1.84-1.32,5.19,5.19,0,0,1,2.24-.49,5.35,5.35,0,0,1,1.39.18,5.44,5.44,0,0,1,1.3.52,5.78,5.78,0,0,1,1.14.84A5,5,0,0,1,526.77,316.49Z"/><path class="cls-2" d="M533.85,325.55a4.85,4.85,0,0,1-2-.4,5,5,0,0,1-2.69-2.69,4.85,4.85,0,0,1-.4-2v-3.35h-1.4v-2.88h1.4v-4.51h2.87v4.51H536v2.88h-4.37v3.35a2.15,2.15,0,0,0,.17.85,2.21,2.21,0,0,0,2,1.34H536v2.87Z"/><path class="cls-2" d="M541.05,311.17a1.71,1.71,0,0,1-.16.75,2,2,0,0,1-.41.61,2.16,2.16,0,0,1-.62.41,2,2,0,0,1-1.51,0,1.87,1.87,0,0,1-.61-.41,1.82,1.82,0,0,1-.41-.61,1.81,1.81,0,0,1,0-1.49,1.88,1.88,0,0,1,1-1,2,2,0,0,1,1.51,0,2.16,2.16,0,0,1,.62.41,2,2,0,0,1,.41.62A1.7,1.7,0,0,1,541.05,311.17Zm-.5,14.38h-2.9V314.24h2.9Z"/><path class="cls-2" d="M553.67,319.8a6.16,6.16,0,0,1-.45,2.36,6.08,6.08,0,0,1-1.24,1.89,5.67,5.67,0,0,1-1.83,1.25,5.73,5.73,0,0,1-4.5,0,5.67,5.67,0,0,1-1.83-1.25,5.91,5.91,0,0,1-1.24-1.89,6,6,0,0,1-.46-2.36,6.06,6.06,0,0,1,.46-2.39,5.68,5.68,0,0,1,5.32-3.6,5.82,5.82,0,0,1,2.25.43,5.41,5.41,0,0,1,1.83,1.21,5.85,5.85,0,0,1,1.24,1.89A6.49,6.49,0,0,1,553.67,319.8Zm-2.9,0a3.42,3.42,0,0,0-.23-1.27,3,3,0,0,0-.61-1,2.72,2.72,0,0,0-.92-.62,2.94,2.94,0,0,0-2.23,0,2.55,2.55,0,0,0-.9.62,3,3,0,0,0-.61,1,3.42,3.42,0,0,0-.22,1.27,3.21,3.21,0,0,0,.22,1.21,3,3,0,0,0,.61,1,2.77,2.77,0,0,0,.9.65,2.65,2.65,0,0,0,1.12.24,3,3,0,0,0,1.11-.22,2.9,2.9,0,0,0,.92-.63,2.81,2.81,0,0,0,.61-1A3.39,3.39,0,0,0,550.77,319.8Z"/><path class="cls-2" d="M558.15,325.55h-2.88V314.24h1.64v1.1a5,5,0,0,1,3.42-1.32,4.81,4.81,0,0,1,2,.4,5,5,0,0,1,1.6,1.08,5.11,5.11,0,0,1,1.08,1.62,4.85,4.85,0,0,1,.4,2v6.46h-2.88v-6.46a2.14,2.14,0,0,0-.17-.84,2.27,2.27,0,0,0-1.15-1.16,2.14,2.14,0,0,0-.84-.17,2.22,2.22,0,0,0-.85.17,2.27,2.27,0,0,0-.7.47,2.31,2.31,0,0,0-.46.69,2.14,2.14,0,0,0-.17.84Z"/><path class="cls-2" d="M573.63,325.55H567v-2.87h6.59a.72.72,0,0,0,.71-.72.39.39,0,0,0-.21-.4,1.27,1.27,0,0,0-.5-.1h-3a3.51,3.51,0,0,1-1.41-.28,3.73,3.73,0,0,1-1.14-.78,3.56,3.56,0,0,1-.76-1.14,3.51,3.51,0,0,1-.28-1.41,3.6,3.6,0,0,1,1-2.54,3.88,3.88,0,0,1,1.14-.77,3.69,3.69,0,0,1,1.41-.28h5.84v2.88h-5.84a.72.72,0,0,0-.72.71.74.74,0,0,0,.21.53.69.69,0,0,0,.51.21h3a4,4,0,0,1,1.39.25,3.62,3.62,0,0,1,1.14.69,3.33,3.33,0,0,1,.77,1.07,3.22,3.22,0,0,1,.29,1.36,3.44,3.44,0,0,1-.29,1.4,3.88,3.88,0,0,1-.77,1.14,3.56,3.56,0,0,1-2.53,1.05Z"/></g></svg>